# xmcd
#
# Track frame offsets: 
#        150
#        26775
#        48928
#        83284
#        109601
#        140222
#        169993
#        202169
#        225234
#
# Disc length: 3264 seconds
#
# Revision: 0
# Processed by: cddbd v1.5.2PL0 Copyright (c) Steve Scherf et al.
# Submitted via: ExactAudioCopy v0.99pb5
#
DISCID=710cbe09
DTITLE=Eric Clapton  - E.C. Is Here - Disc 09 (DJ Copy 71)
DYEAR=1900
DGENRE=
TTITLE0=Layla
TTITLE1=Further On Up the Road
TTITLE2=I Shot The Sheriff
TTITLE3=Better Make It Through Today
TTITLE4=Keep On Growing
TTITLE5=Can't Find My Way Home
TTITLE6=Driftin' Blues
TTITLE7=Sunshine Of Your Love
TTITLE8=Motherless Children
EXTD=
EXTT0=
EXTT1=
EXTT2=
EXTT3=
EXTT4=
EXTT5=
EXTT6=
EXTT7=
EXTT8=
PLAYORDER=
